<?xml version="1.0" standalone="no"?>
<!DOCTYPE svg PUBLIC "-//W3C//DTD SVG 20010904//EN"
 "http://www.w3.org/TR/2001/REC-SVG-20010904/DTD/svg10.dtd">
<svg version="1.0" xmlns="http://www.w3.org/2000/svg"
 width="300.000000pt" height="300.000000pt" viewBox="0 0 300.000000 300.000000"
 preserveAspectRatio="xMidYMid meet">
<metadata>
Created by potrace 1.11, written by Peter Selinger 2001-2013
</metadata>
<g transform="translate(0.000000,300.000000) scale(0.100000,-0.100000)"
fill="#000000" stroke="none">
<path d="M1450 2693 c-30 -9 -165 -47 -299 -84 -134 -37 -245 -70 -247 -72 -3
-2 -4 -384 -4 -849 l0 -846 -41 -6 c-66 -11 -270 -81 -350 -121 -72 -36 -239
-140 -239 -149 0 -2 28 4 63 15 81 25 310 80 392 94 308 53 495 70 785 69 173
0 400 -9 449 -19 10 -2 42 -6 72 -9 30 -4 68 -9 84 -11 17 -3 50 -7 75 -10 25
-3 53 -8 62 -11 10 -3 30 -7 45 -10 94 -15 253 -52 383 -88 30 -8 56 -14 58
-12 7 7 -196 117 -297 162 -56 24 -152 59 -213 78 l-113 34 -3 554 -3 553
-229 137 -230 137 0 -660 0 -660 -67 3 -68 3 0 898 c0 493 -2 897 -5 896 -3 0
-30 -8 -60 -16z"/>
<path d="M1357 674 c-1 -1 -64 -4 -140 -8 -75 -4 -143 -9 -150 -11 -6 -2 -41
-6 -77 -9 -36 -3 -76 -8 -90 -10 -14 -3 -38 -7 -55 -9 -209 -31 -444 -103
-623 -190 -68 -33 -212 -116 -212 -123 0 -2 19 4 43 12 47 17 285 80 332 89
17 2 41 7 55 10 61 13 117 22 220 35 47 6 99 12 115 15 17 2 66 7 110 10 44 4
96 8 115 11 68 8 347 18 520 18 280 0 475 -14 830 -60 102 -14 426 -78 563
-112 42 -11 77 -18 77 -16 0 2 -33 25 -72 51 -103 65 -235 126 -358 162 -107
31 -361 84 -460 95 -30 4 -66 8 -80 10 -130 21 -246 28 -468 30 -106 1 -194 1
-195 0z"/>
</g>
</svg>
